<?xml version="1.0" standalone="no"?><svg xmlns="http://www.w3.org/2000/svg" viewBox="0 0 1440 320"><path fill="#273036" fill-opacity="1" d="M0,32L10.9,53.3C21.8,75,44,117,65,160C87.3,203,109,245,131,266.7C152.7,288,175,288,196,256C218.2,224,240,160,262,149.3C283.6,139,305,181,327,192C349.1,203,371,181,393,170.7C414.5,160,436,160,458,138.7C480,117,502,75,524,80C545.5,85,567,139,589,181.3C610.9,224,633,256,655,256C676.4,256,698,224,720,218.7C741.8,213,764,235,785,224C807.3,213,829,171,851,144C872.7,117,895,107,916,117.3C938.2,128,960,160,982,154.7C1003.6,149,1025,107,1047,101.3C1069.1,96,1091,128,1113,165.3C1134.5,203,1156,245,1178,224C1200,203,1222,117,1244,85.3C1265.5,53,1287,75,1309,96C1330.9,117,1353,139,1375,133.3C1396.4,128,1418,96,1429,80L1440,64L1440,320L1429.1,320C1418.2,320,1396,320,1375,320C1352.7,320,1331,320,1309,320C1287.3,320,1265,320,1244,320C1221.8,320,1200,320,1178,320C1156.4,320,1135,320,1113,320C1090.9,320,1069,320,1047,320C1025.5,320,1004,320,982,320C960,320,938,320,916,320C894.5,320,873,320,851,320C829.1,320,807,320,785,320C763.6,320,742,320,720,320C698.2,320,676,320,655,320C632.7,320,611,320,589,320C567.3,320,545,320,524,320C501.8,320,480,320,458,320C436.4,320,415,320,393,320C370.9,320,349,320,327,320C305.5,320,284,320,262,320C240,320,218,320,196,320C174.5,320,153,320,131,320C109.1,320,87,320,65,320C43.6,320,22,320,11,320L0,320Z"></path></svg>